<?xml version="1.0" encoding="UTF-8" standalone="no"?>
<svg
   version="1.1"
   width="200"
   height="200"
   viewBox="-0.9 -0.9 1.8 1.8"
   id="svg30"
   xmlns="http://www.w3.org/2000/svg"
   xmlns:svg="http://www.w3.org/2000/svg">
  <defs
     id="defs30" />
  <g
     style="opacity:1;stroke-width:0;stroke-linejoin:round;stroke-opacity:0.5"
     id="g30">
    <g
       id="g54">
      <path
         id="path3"
         style="baseline-shift:baseline;display:inline;overflow:visible;vector-effect:none;fill:#000000;fill-opacity:1;stroke-linejoin:miter;stroke-opacity:1;paint-order:markers stroke fill;enable-background:accumulate;stop-color:#000000"
         d="m 0,-0.79686914 -0.30663281,0.13280273 0.001635,7.5586e-4 -0.24382617,0.10471289 4.9219e-4,2.461e-4 -0.20257031,0.0881894 -0.0293027,0.0127441 0.003305,0.0339961 0.0222715,0.22886719 -0.00123,-7.5586e-4 0.0261211,0.27196875 -7.3828e-4,-4.9218e-4 0.0312539,0.3320332 0.20696485,0.14547656 7.031e-5,0.00102 0.28125,0.19726172 -5.273e-5,-0.001406 0.18363867,0.12854883 0.02633203,0.0184219 0.02640234,-0.0185273 0.18560742,-0.13028906 -5.273e-5,0.001301 0.21888281,-0.15459961 -1.4062e-4,0.00225 0.26954297,-0.18945703 0.0312539,-0.3320332 -7.3828e-4,4.9218e-4 0.0261211,-0.27196875 -0.00123,7.5586e-4 0.0222715,-0.22886719 0.003305,-0.0339961 -0.0294258,-0.0127969 -0.20244727,-0.0881367 4.9219e-4,-2.461e-4 -0.24382617,-0.10471289 0.001635,-7.5586e-4 z m 0,0.0976465 0.08593945,0.0390586 L 0,-0.62108789 -0.08593945,-0.66016406 Z m -0.23436914,0.10156641 0.091793,0.0429609 -0.10546875,0.048832 -0.0898418,-0.0468633 z m 0.46873828,0 0.10351758,0.0449297 -0.0898418,0.0468633 -0.10546875,-0.048832 z m -0.71875195,0.10937109 0.0957129,0.048832 -0.12694922,0.0585879 -0.0937617,-0.0527344 z m 0.96876562,0 0.12499805,0.0546855 -0.0937617,0.0527344 -0.12694922,-0.0585879 z M 0,-0.48633398 0.10937109,-0.43750195 0,-0.38086523 -0.10937109,-0.43750195 Z m -0.25194727,0.11719335 0.11522461,0.0585879 -0.13280273,0.0664101 -0.11524219,-0.064459 z m 0.50389454,0 0.13282031,0.0605391 -0.11524219,0.064459 -0.13280273,-0.0664101 z m -0.92968946,0.0429609 0.0976641,0.0547031 0.009773,0.14842968 -0.0937617,-0.0566367 z m 1.35548438,0 -0.015627,0.1464961 -0.0937617,0.0566367 0.009773,-0.14842968 z M 0,-0.24024023 0.13477148,-0.17187891 0,-0.09569531 -0.13477148,-0.17187891 Z m -0.45117773,0.0410273 0.11719335,0.0644414 0.005854,0.15820312 -0.11327344,-0.06836133 z m 0.90040429,0 -0.009773,0.1542832 -0.11132226,0.06836133 0.005854,-0.15820312 z m -0.65235937,0.13867383 0.13867383,0.07616601 V 0.1835859 L -0.19726172,0.1015664 Z m 0.40626562,0 -0.005871,0.16210547 -0.13280274,0.0800684 V 0.01562695 Z m 0.44530664,0.03515625 -0.0117246,0.12499804 -0.0878906,0.05858789 0.009773,-0.12694921 z m -1.2968789,0.0019512 0.0898418,0.05468555 0.007822,0.12499804 -0.0859395,-0.05663672 z m 0.21679101,0.13280273 0.10938867,0.0664102 0.003902,0.13282031 -0.10351758,-0.0683613 z m 0.86132813,0 -0.007805,0.13086914 -0.10546875,0.0683613 0.005854,-0.13282031 z m -1.05271875,0.14452735 0.0839707,0.0566543 0.007822,0.10546875 -0.0820371,-0.0566543 z m 0.81444726,0 -0.003902,0.13867383 -0.12304688,0.0800859 v -0.140625 z m 0.43163086,0 -0.009756,0.10546875 -0.0820371,0.0566543 0.007822,-0.10741992 z m -0.81639844,0.001969 0.1289004,0.0781172 V 0.4726582 L -0.18750586,0.3925723 Z m -0.21874218,0.13865625 0.10154883,0.0664101 0.00392,0.11133985 -0.0976641,-0.0664102 z m 0.82420312,0 -0.007805,0.10938867 -0.0976641,0.0683613 0.005871,-0.11329102 z m -0.5956875,0.15039844 0.11912696,0.0800859 V 0.7421838 L -0.17968359,0.6621154 Z m 0.36717188,0 -0.003902,0.11719335 -0.11717578,0.0820195 V 0.62303906 Z" />
    </g>
    <g
       id="g55">
      <path
         style="baseline-shift:baseline;display:inline;overflow:visible;opacity:1;vector-effect:none;fill:#0000f2;stroke-width:0;stroke-linejoin:miter;stroke-opacity:1;paint-order:markers stroke fill;enable-background:accumulate;stop-color:#000000"
         d="m -0.46322848,0.30695546 0.19602868,0.12885803 0.008122,0.22639248 -0.18915401,-0.132835 z"
         id="path4" />
      <path
         style="baseline-shift:baseline;display:inline;overflow:visible;vector-effect:none;fill:#0000f2;stroke-linejoin:miter;stroke-opacity:1;paint-order:markers stroke fill;enable-background:accumulate;stop-color:#000000"
         d="m -0.23182333,0.45988003 0.21302684,0.14003165 V 0.83016851 L -0.22370113,0.6862725 Z"
         id="path2" />
      <path
         style="baseline-shift:baseline;display:inline;overflow:visible;opacity:1;vector-effect:none;fill:#ee0000;stroke-width:0;stroke-linejoin:miter;stroke-opacity:1;paint-order:markers stroke fill;enable-background:accumulate;stop-color:#000000"
         d="M 0.01879649,0.30740091 0.24061602,0.17241227 0.23182333,0.41749347 0.01879649,0.55752512 Z"
         id="path30" />
      <path
         style="baseline-shift:baseline;display:inline;overflow:visible;opacity:1;vector-effect:none;fill:#ee0000;stroke-width:0;stroke-linejoin:miter;stroke-opacity:1;paint-order:markers stroke fill;enable-background:accumulate;stop-color:#000000"
         d="M 0.27748498,0.14913168 0.4809045,0.02534041 0.46472097,0.26535484 0.26869229,0.39421288 Z"
         id="path28" />
      <path
         style="baseline-shift:baseline;display:inline;overflow:visible;opacity:1;vector-effect:none;fill:#ee0000;stroke-width:0;stroke-linejoin:miter;stroke-opacity:1;paint-order:markers stroke fill;enable-background:accumulate;stop-color:#000000"
         d="M 0.51482272,0.00392025 0.70204048,-0.11001142 0.67962618,0.1249642 0.4986392,0.24393468 Z"
         id="path26" />
      <path
         style="baseline-shift:baseline;display:inline;overflow:visible;opacity:1;vector-effect:none;fill:#ee0000;stroke-width:0;stroke-linejoin:miter;stroke-opacity:1;paint-order:markers stroke fill;enable-background:accumulate;stop-color:#000000"
         d="M 0.01807982,0.59957071 0.23110666,0.45953905 0.22298446,0.68593153 0.01807982,0.82982754 Z"
         id="path24" />
      <path
         style="baseline-shift:baseline;display:inline;overflow:visible;opacity:1;vector-effect:none;fill:#ee0000;stroke-width:0;stroke-linejoin:miter;stroke-opacity:1;paint-order:markers stroke fill;enable-background:accumulate;stop-color:#000000"
         d="M 0.26659321,0.43546259 0.46262189,0.30660455 0.44762502,0.52902006 0.25847101,0.66185506 Z"
         id="path22" />
      <path
         style="baseline-shift:baseline;display:inline;overflow:visible;opacity:1;vector-effect:none;fill:#ee0000;stroke-width:0;stroke-linejoin:miter;stroke-opacity:1;paint-order:markers stroke fill;enable-background:accumulate;stop-color:#000000"
         d="M 0.49537315,0.28438159 0.67636014,0.16541111 0.65552852,0.38379496 0.48037628,0.50679711 Z"
         id="path20" />
      <path
         style="baseline-shift:baseline;display:inline;overflow:visible;opacity:1;vector-effect:none;fill:#0000f2;stroke-width:0;stroke-linejoin:miter;stroke-opacity:1;paint-order:markers stroke fill;enable-background:accumulate;stop-color:#000000"
         d="m -0.73033662,-0.406648 0.19388543,0.10767636 0.0175168,0.2597882 -0.18721776,-0.11393167 z"
         id="path18" />
      <path
         style="baseline-shift:baseline;display:inline;overflow:visible;opacity:1;vector-effect:none;fill:#ee0000;stroke-width:0;stroke-linejoin:miter;stroke-opacity:1;paint-order:markers stroke fill;enable-background:accumulate;stop-color:#000000"
         d="m -0.50139488,-0.27854802 0.21138656,0.1173958 0.00955,0.26618367 -0.20341952,-0.12379127 z"
         id="path16" />
      <path
         style="baseline-shift:baseline;display:inline;overflow:visible;opacity:1;vector-effect:none;fill:#ee0000;stroke-width:0;stroke-linejoin:miter;stroke-opacity:1;paint-order:markers stroke fill;enable-background:accumulate;stop-color:#000000"
         d="m -0.25178425,-0.138883 0.23136931,0.12849344 V 0.26228931 L -0.24223447,0.12730067 Z"
         id="path14" />
      <path
         style="baseline-shift:baseline;display:inline;overflow:visible;opacity:1;vector-effect:none;fill:#0000f2;stroke-width:0;stroke-linejoin:miter;stroke-opacity:1;paint-order:markers stroke fill;enable-background:accumulate;stop-color:#000000"
         d="m -0.70259026,-0.10956682 0.18721777,0.11393167 0.0161835,0.24001443 -0.18098698,-0.11897048 z"
         id="path12" />
      <path
         style="baseline-shift:baseline;display:inline;overflow:visible;opacity:1;vector-effect:none;fill:#0000f2;stroke-width:0;stroke-linejoin:miter;stroke-opacity:1;paint-order:markers stroke fill;enable-background:accumulate;stop-color:#000000"
         d="m -0.48155663,0.02578747 0.20341952,0.12379128 0.008793,0.24508119 -0.19602869,-0.12885803 z"
         id="path10" />
      <path
         style="baseline-shift:baseline;display:inline;overflow:visible;opacity:1;vector-effect:none;fill:#0000f2;stroke-width:0;stroke-linejoin:miter;stroke-opacity:1;paint-order:markers stroke fill;enable-background:accumulate;stop-color:#000000"
         d="m -0.24139185,0.17285725 0.22181954,0.13498863 V 0.55797009 L -0.23259916,0.41793844 Z"
         id="path8" />
      <path
         style="baseline-shift:baseline;display:inline;overflow:visible;opacity:1;vector-effect:none;fill:#0000f2;stroke-width:0;stroke-linejoin:miter;stroke-opacity:1;paint-order:markers stroke fill;enable-background:accumulate;stop-color:#000000"
         d="m -0.67687497,0.16576684 0.18098699,0.11897049 0.0149969,0.22241551 -0.17515224,-0.12300214 z"
         id="path6" />
      <path
         style="baseline-shift:baseline;display:inline;overflow:visible;opacity:1;vector-effect:none;fill:#0000f2;stroke-width:0;stroke-linejoin:miter;stroke-opacity:1;paint-order:markers stroke fill;enable-background:accumulate;stop-color:#000000"
         d="m 0.53586287,-0.29952358 0.19388542,-0.10767636 -0.0241845,0.25353289 -0.18721777,0.11393167 z"
         id="path32" />
      <path
         style="baseline-shift:baseline;display:inline;overflow:visible;opacity:1;vector-effect:none;fill:#0000f2;stroke-width:0;stroke-linejoin:miter;stroke-opacity:1;paint-order:markers stroke fill;enable-background:accumulate;stop-color:#000000"
         d="M 0.28930534,-0.16171652 0.5006919,-0.27911233 0.48317509,-0.01932413 0.27975557,0.10446715 Z"
         id="path34" />
      <path
         style="baseline-shift:baseline;display:inline;overflow:visible;opacity:1;vector-effect:none;fill:#00d800;stroke-width:0;stroke-linejoin:miter;stroke-opacity:1;paint-order:markers stroke fill;enable-background:accumulate;stop-color:#000000"
         d="M 0.01957231,-0.01096266 0.25094162,-0.13945611 0.24139185,0.12672756 0.01957231,0.2617162 Z"
         id="path36" />
      <path
         style="baseline-shift:baseline;display:inline;overflow:visible;opacity:1;vector-effect:none;fill:#fefe00;stroke-width:0;stroke-linejoin:miter;stroke-opacity:1;paint-order:markers stroke fill;enable-background:accumulate;stop-color:#000000"
         d="M 0,-0.29069716 0.23136931,-0.17330135 0,-0.04480791 -0.23136931,-0.17330135 Z"
         id="path38" />
      <path
         style="baseline-shift:baseline;display:inline;overflow:visible;opacity:1;vector-effect:none;fill:#fefe00;stroke-width:0;stroke-linejoin:miter;stroke-opacity:1;paint-order:markers stroke fill;enable-background:accumulate;stop-color:#000000"
         d="m -0.25135345,-0.41921204 0.21221377,0.10767637 -0.23136932,0.1173958 -0.21138655,-0.1173958 z"
         id="path40" />
      <path
         style="baseline-shift:baseline;display:inline;overflow:visible;opacity:1;vector-effect:none;fill:#fefe00;stroke-width:0;stroke-linejoin:miter;stroke-opacity:1;paint-order:markers stroke fill;enable-background:accumulate;stop-color:#000000"
         d="m -0.48258386,-0.53743199 0.19534255,0.099116 -0.23054211,0.10767637 -0.19388542,-0.10767637 z"
         id="path42" />
      <path
         style="baseline-shift:baseline;display:inline;overflow:visible;opacity:1;vector-effect:none;fill:#fefe00;stroke-width:0;stroke-linejoin:miter;stroke-opacity:1;paint-order:markers stroke fill;enable-background:accumulate;stop-color:#000000"
         d="m 0.25135345,-0.41921204 0.2305421,0.10767637 -0.21138655,0.1173958 -0.23136932,-0.1173958 z"
         id="path44" />
      <path
         style="baseline-shift:baseline;display:inline;overflow:visible;opacity:1;vector-effect:none;fill:#fefe00;stroke-width:0;stroke-linejoin:miter;stroke-opacity:1;paint-order:markers stroke fill;enable-background:accumulate;stop-color:#000000"
         d="m 0,-0.53743199 0.21221376,0.099116 L 0,-0.33063965 -0.21221376,-0.43831602 Z"
         id="path46" />
      <path
         style="baseline-shift:baseline;display:inline;overflow:visible;opacity:1;vector-effect:none;fill:#fefe00;stroke-width:0;stroke-linejoin:miter;stroke-opacity:1;paint-order:markers stroke fill;enable-background:accumulate;stop-color:#000000"
         d="m -0.23200531,-0.64654708 0.19598755,0.0915374 -0.21221377,0.099116 -0.19534254,-0.099116 z"
         id="path48" />
      <path
         style="baseline-shift:baseline;display:inline;overflow:visible;opacity:1;vector-effect:none;fill:#fefe00;stroke-width:0;stroke-linejoin:miter;stroke-opacity:1;paint-order:markers stroke fill;enable-background:accumulate;stop-color:#000000"
         d="m 0.48258386,-0.53743199 0.22908498,0.099116 -0.19388542,0.10767637 -0.23054211,-0.10767637 z"
         id="path50" />
      <path
         style="baseline-shift:baseline;display:inline;overflow:visible;opacity:1;vector-effect:none;fill:#fefe00;stroke-width:0;stroke-linejoin:miter;stroke-opacity:1;paint-order:markers stroke fill;enable-background:accumulate;stop-color:#000000"
         d="m 0.23200531,-0.64654708 0.21156876,0.0915374 -0.19534254,0.099116 -0.21221377,-0.099116 z"
         id="path52" />
      <path
         style="baseline-shift:baseline;display:inline;overflow:visible;opacity:1;vector-effect:none;fill:#fefe00;stroke-width:0;stroke-linejoin:miter;stroke-opacity:1;paint-order:markers stroke fill;enable-background:accumulate;stop-color:#000000"
         d="m 0,-0.74757065 0.19598755,0.084796 L 0,-0.57123721 -0.19598755,-0.66277461 Z"
         id="path54" />
    </g>
  </g>
</svg>
